G04*
G04 #@! TF.GenerationSoftware,Altium Limited,Altium Designer,19.0.10 (269)*
G04*
G04 Layer_Color=65535*
%FSLAX24Y24*%
%MOIN*%
G70*
G01*
G75*
%ADD10C,0.0236*%
%ADD11C,0.0098*%
%ADD12C,0.0079*%
%ADD13C,0.0100*%
%ADD14C,0.0080*%
%ADD15C,0.0039*%
%ADD16C,0.0060*%
%ADD17C,0.0059*%
G36*
X22363Y17763D02*
X22380Y17760D01*
X22395Y17756D01*
X22408Y17752D01*
X22419Y17746D01*
X22427Y17742D01*
X22430Y17741D01*
X22433Y17739D01*
X22433Y17739D01*
X22434D01*
X22448Y17729D01*
X22460Y17717D01*
X22471Y17705D01*
X22479Y17693D01*
X22486Y17683D01*
X22491Y17675D01*
X22492Y17672D01*
X22494Y17669D01*
X22495Y17668D01*
Y17667D01*
X22502Y17649D01*
X22507Y17631D01*
X22511Y17613D01*
X22514Y17596D01*
X22515Y17582D01*
Y17575D01*
X22516Y17570D01*
Y17566D01*
Y17563D01*
Y17560D01*
Y17560D01*
X22515Y17542D01*
X22514Y17525D01*
X22512Y17510D01*
X22509Y17495D01*
X22505Y17481D01*
X22501Y17469D01*
X22496Y17458D01*
X22492Y17447D01*
X22487Y17439D01*
X22482Y17431D01*
X22479Y17424D01*
X22475Y17419D01*
X22472Y17414D01*
X22469Y17411D01*
X22468Y17410D01*
X22467Y17409D01*
X22458Y17400D01*
X22448Y17392D01*
X22438Y17385D01*
X22427Y17379D01*
X22417Y17374D01*
X22406Y17370D01*
X22387Y17364D01*
X22378Y17361D01*
X22370Y17360D01*
X22363Y17358D01*
X22356Y17358D01*
X22350Y17357D01*
X22343D01*
X22330Y17358D01*
X22317Y17359D01*
X22305Y17361D01*
X22294Y17365D01*
X22282Y17369D01*
X22272Y17374D01*
X22263Y17378D01*
X22254Y17383D01*
X22247Y17388D01*
X22240Y17393D01*
X22234Y17397D01*
X22230Y17401D01*
X22226Y17404D01*
X22223Y17407D01*
X22221Y17408D01*
X22221Y17409D01*
X22212Y17419D01*
X22204Y17431D01*
X22198Y17442D01*
X22193Y17454D01*
X22188Y17466D01*
X22184Y17477D01*
X22178Y17500D01*
X22176Y17511D01*
X22174Y17521D01*
X22174Y17530D01*
X22173Y17537D01*
X22172Y17544D01*
Y17549D01*
Y17552D01*
Y17553D01*
X22173Y17573D01*
X22174Y17593D01*
X22177Y17609D01*
X22180Y17626D01*
X22184Y17641D01*
X22188Y17654D01*
X22193Y17666D01*
X22198Y17676D01*
X22202Y17686D01*
X22207Y17693D01*
X22211Y17700D01*
X22215Y17706D01*
X22218Y17709D01*
X22221Y17712D01*
X22222Y17714D01*
X22223Y17715D01*
X22233Y17723D01*
X22243Y17731D01*
X22253Y17738D01*
X22264Y17743D01*
X22274Y17748D01*
X22284Y17752D01*
X22303Y17758D01*
X22311Y17760D01*
X22319Y17762D01*
X22327Y17762D01*
X22333Y17763D01*
X22337Y17764D01*
X22344D01*
X22363Y17763D01*
D02*
G37*
G36*
X22702Y17300D02*
X22344D01*
X22368Y17302D01*
X22391Y17305D01*
X22412Y17310D01*
X22429Y17315D01*
X22438Y17318D01*
X22445Y17321D01*
X22451Y17324D01*
X22456Y17326D01*
X22461Y17328D01*
X22464Y17329D01*
X22466Y17331D01*
X22466D01*
X22486Y17344D01*
X22504Y17358D01*
X22519Y17374D01*
X22532Y17388D01*
X22541Y17401D01*
X22545Y17408D01*
X22548Y17412D01*
X22551Y17417D01*
X22552Y17420D01*
X22554Y17421D01*
Y17422D01*
X22565Y17445D01*
X22572Y17469D01*
X22578Y17492D01*
X22582Y17514D01*
X22583Y17523D01*
X22584Y17532D01*
X22585Y17540D01*
Y17547D01*
X22585Y17552D01*
Y17560D01*
X22584Y17587D01*
X22581Y17613D01*
X22576Y17636D01*
X22573Y17646D01*
X22571Y17656D01*
X22568Y17664D01*
X22565Y17672D01*
X22562Y17679D01*
X22560Y17684D01*
X22558Y17689D01*
X22557Y17692D01*
X22555Y17694D01*
Y17695D01*
X22543Y17716D01*
X22530Y17735D01*
X22515Y17751D01*
X22502Y17764D01*
X22489Y17774D01*
X22484Y17778D01*
X22479Y17782D01*
X22476Y17785D01*
X22472Y17786D01*
X22471Y17788D01*
X22470D01*
X22459Y17794D01*
X22449Y17799D01*
X22427Y17807D01*
X22406Y17813D01*
X22386Y17818D01*
X22377Y17818D01*
X22370Y17820D01*
X22362Y17821D01*
X22356D01*
X22351Y17821D01*
X22702D01*
Y17300D01*
D02*
G37*
G36*
X22325Y17821D02*
X22306Y17818D01*
X22288Y17815D01*
X22272Y17811D01*
X22257Y17805D01*
X22242Y17799D01*
X22229Y17792D01*
X22217Y17786D01*
X22206Y17779D01*
X22197Y17772D01*
X22189Y17767D01*
X22182Y17762D01*
X22177Y17757D01*
X22173Y17753D01*
X22171Y17751D01*
X22170Y17750D01*
X22158Y17736D01*
X22148Y17722D01*
X22139Y17706D01*
X22131Y17689D01*
X22125Y17673D01*
X22119Y17657D01*
X22115Y17641D01*
X22112Y17626D01*
X22108Y17610D01*
X22107Y17597D01*
X22105Y17585D01*
X22104Y17574D01*
Y17566D01*
X22103Y17559D01*
Y17553D01*
X22105Y17529D01*
X22108Y17506D01*
X22112Y17484D01*
X22115Y17475D01*
X22118Y17466D01*
X22120Y17457D01*
X22122Y17450D01*
X22125Y17444D01*
X22127Y17438D01*
X22129Y17434D01*
X22130Y17431D01*
X22131Y17428D01*
Y17427D01*
X22144Y17407D01*
X22157Y17388D01*
X22171Y17372D01*
X22185Y17358D01*
X22198Y17348D01*
X22203Y17344D01*
X22208Y17340D01*
X22211Y17338D01*
X22214Y17335D01*
X22216Y17335D01*
X22217Y17334D01*
X22227Y17328D01*
X22238Y17323D01*
X22260Y17315D01*
X22282Y17308D01*
X22301Y17305D01*
X22310Y17303D01*
X22319Y17302D01*
X22326Y17301D01*
X22332D01*
X22337Y17300D01*
X21307D01*
X21333Y17302D01*
X21356Y17305D01*
X21367Y17306D01*
X21376Y17308D01*
X21385Y17312D01*
X21393Y17314D01*
X21400Y17316D01*
X21406Y17319D01*
X21412Y17321D01*
X21416Y17323D01*
X21420Y17325D01*
X21422Y17326D01*
X21423Y17328D01*
X21424D01*
X21440Y17339D01*
X21453Y17351D01*
X21464Y17363D01*
X21473Y17375D01*
X21479Y17385D01*
X21483Y17393D01*
X21485Y17396D01*
X21486Y17398D01*
X21486Y17400D01*
Y17401D01*
X21493Y17418D01*
X21496Y17438D01*
X21499Y17458D01*
X21502Y17477D01*
X21502Y17487D01*
X21503Y17495D01*
Y17502D01*
X21504Y17509D01*
Y17813D01*
X21437D01*
Y17521D01*
Y17504D01*
X21436Y17488D01*
X21434Y17474D01*
X21433Y17461D01*
X21430Y17449D01*
X21427Y17439D01*
X21424Y17430D01*
X21422Y17421D01*
X21419Y17414D01*
X21416Y17408D01*
X21413Y17404D01*
X21410Y17400D01*
X21409Y17397D01*
X21407Y17394D01*
X21406Y17394D01*
Y17393D01*
X21400Y17387D01*
X21392Y17382D01*
X21376Y17374D01*
X21359Y17368D01*
X21341Y17364D01*
X21326Y17361D01*
X21319Y17361D01*
X21313D01*
X21307Y17360D01*
X21300D01*
X21285Y17361D01*
X21271Y17362D01*
X21259Y17365D01*
X21248Y17368D01*
X21240Y17371D01*
X21234Y17374D01*
X21230Y17375D01*
X21228Y17376D01*
X21218Y17383D01*
X21209Y17391D01*
X21201Y17399D01*
X21196Y17407D01*
X21191Y17414D01*
X21188Y17419D01*
X21187Y17423D01*
X21186Y17424D01*
X21184Y17431D01*
X21182Y17437D01*
X21179Y17453D01*
X21178Y17469D01*
X21176Y17484D01*
X21175Y17499D01*
X21175Y17505D01*
Y17510D01*
Y17515D01*
Y17518D01*
Y17520D01*
Y17521D01*
Y17813D01*
X21108D01*
Y17507D01*
X21109Y17493D01*
X21109Y17480D01*
X21111Y17467D01*
X21112Y17457D01*
X21114Y17446D01*
X21115Y17437D01*
X21118Y17428D01*
X21119Y17421D01*
X21121Y17414D01*
X21122Y17408D01*
X21124Y17403D01*
X21125Y17399D01*
X21126Y17397D01*
X21127Y17395D01*
Y17394D01*
X21135Y17378D01*
X21145Y17364D01*
X21155Y17352D01*
X21166Y17342D01*
X21175Y17334D01*
X21184Y17328D01*
X21187Y17326D01*
X21188Y17325D01*
X21190Y17324D01*
X21191D01*
X21208Y17316D01*
X21228Y17310D01*
X21248Y17306D01*
X21266Y17303D01*
X21274Y17302D01*
X21282Y17302D01*
X21289Y17301D01*
X21295D01*
X21300Y17300D01*
X20991D01*
Y17821D01*
X22344D01*
X22325Y17821D01*
D02*
G37*
%LPC*%
G36*
X22012Y17813D02*
X21948D01*
Y17417D01*
X21682Y17813D01*
X21615D01*
Y17308D01*
X21678D01*
Y17705D01*
X21943Y17308D01*
X22012D01*
Y17813D01*
D02*
G37*
%LPD*%
D10*
X11554Y14581D02*
G03*
X11554Y14581I-118J0D01*
G01*
X24893Y7050D02*
G03*
X24893Y7050I-118J0D01*
G01*
D11*
X12322Y14470D02*
G03*
X12322Y14470I-49J0D01*
G01*
X5961Y6179D02*
G03*
X5961Y6179I-49J0D01*
G01*
X17919Y11430D02*
G03*
X17919Y11430I-49J0D01*
G01*
X12607Y12533D02*
G03*
X12607Y12533I-49J0D01*
G01*
X9907D02*
G03*
X9907Y12533I-49J0D01*
G01*
X3093Y5943D02*
G03*
X3093Y5943I-49J0D01*
G01*
X25261Y7900D02*
G03*
X25261Y7900I-49J0D01*
G01*
X14391Y15267D02*
G03*
X14391Y15267I-49J0D01*
G01*
D12*
X4767Y14598D02*
G03*
X4767Y14519I0J-39D01*
G01*
D02*
G03*
X4767Y14598I0J39D01*
G01*
X25168Y6650D02*
G03*
X25168Y6150I0J-250D01*
G01*
X25629Y429D02*
Y1610D01*
X19293D02*
X25629D01*
X19293Y429D02*
Y1610D01*
Y429D02*
X25629D01*
X10570Y17613D02*
X11830D01*
X10570Y14187D02*
X11830D01*
X10570D02*
Y17613D01*
X11830Y14187D02*
Y17613D01*
X4748Y3866D02*
Y4772D01*
X-1000D02*
X4748D01*
X-1000Y1228D02*
Y4772D01*
X4748Y1228D02*
Y2134D01*
X4000Y1228D02*
X4748D01*
X-1000D02*
X2268D01*
X22469Y12443D02*
Y12757D01*
X17402Y19500D02*
Y20500D01*
X25598D01*
Y19500D02*
Y20500D01*
X17402Y19500D02*
X25598D01*
X17006Y20250D02*
Y20500D01*
Y19500D02*
Y19750D01*
Y20250D01*
X6810Y19500D02*
X17006D01*
X6810D02*
Y20500D01*
X7650D01*
X17006D01*
X12443Y11169D02*
X12757D01*
X8549Y6769D02*
Y7872D01*
X5911Y6769D02*
Y7872D01*
X8549D01*
X5911Y6769D02*
X8549D01*
X18244Y9835D02*
Y10131D01*
X13756Y11469D02*
Y11765D01*
X18244D01*
Y11469D02*
Y11765D01*
X13756Y9835D02*
Y10131D01*
Y9835D02*
X18244D01*
X11298Y11667D02*
Y12120D01*
X12302Y11667D02*
Y12120D01*
X12125Y11667D02*
X12302D01*
X11298D02*
X11475D01*
X8598D02*
Y12120D01*
X9602Y11667D02*
Y12120D01*
X9425Y11667D02*
X9602D01*
X8598D02*
X8775D01*
X7889Y17943D02*
Y18257D01*
Y15743D02*
Y16057D01*
X542Y10700D02*
X6542D01*
X542Y11700D02*
X6542D01*
X542Y10700D02*
Y11700D01*
X6542Y10700D02*
Y11700D01*
X9185Y7542D02*
Y8093D01*
X9815Y7542D02*
Y8093D01*
X9185D02*
X9815D01*
X9185Y8018D02*
X9815D01*
X4243Y6651D02*
X4557D01*
X4868Y6622D02*
X5380D01*
X5567Y4121D02*
X7433D01*
X5567Y5279D02*
X7433D01*
Y5144D02*
Y5279D01*
Y4121D02*
Y4256D01*
X5567Y4121D02*
Y4256D01*
Y5144D02*
Y5279D01*
X7433Y3602D02*
Y3811D01*
X7328Y3706D02*
X7537D01*
X8213Y3350D02*
X8500D01*
X7250D02*
X7587D01*
X6601Y650D02*
X7587D01*
X8213D02*
X9199D01*
X6601D02*
Y2701D01*
X7250Y3350D01*
X8500D02*
X9199Y2651D01*
Y650D02*
Y2651D01*
X17543Y4469D02*
X17857D01*
X16331Y8542D02*
Y8857D01*
X15969Y8543D02*
Y8857D01*
X2453Y5943D02*
Y8581D01*
X1351Y5943D02*
Y8581D01*
Y5943D02*
X2453D01*
X1351Y8581D02*
X2453D01*
X11231Y5357D02*
Y7443D01*
X25169Y5357D02*
Y6150D01*
Y6650D02*
Y7443D01*
X11231Y5357D02*
X25169D01*
X11231Y7443D02*
X25169D01*
X15425Y16133D02*
X15602D01*
X14598D02*
X14775D01*
X14598Y15680D02*
Y16133D01*
X15602Y15680D02*
Y16133D01*
X24500Y9500D02*
X26500D01*
X24500Y12500D02*
X26500D01*
Y9500D02*
Y12500D01*
X24500Y9500D02*
Y12500D01*
Y9500D02*
Y11417D01*
X10402Y1500D02*
X18598D01*
X10402Y500D02*
Y1500D01*
Y500D02*
X18598D01*
Y1500D01*
X12933Y16269D02*
X13248D01*
X21070Y16990D02*
Y16675D01*
X21228D01*
X21280Y16728D01*
Y16937D01*
X21228Y16990D01*
X21070D01*
X21542Y16675D02*
X21437D01*
X21385Y16728D01*
Y16832D01*
X21437Y16885D01*
X21542D01*
X21595Y16832D01*
Y16780D01*
X21385D01*
X21700Y16675D02*
X21857D01*
X21910Y16728D01*
X21857Y16780D01*
X21752D01*
X21700Y16832D01*
X21752Y16885D01*
X21910D01*
X22015Y16675D02*
X22120D01*
X22067D01*
Y16885D01*
X22015D01*
X22277Y16675D02*
Y16885D01*
X22434D01*
X22487Y16832D01*
Y16675D01*
X22697Y16570D02*
X22749D01*
X22802Y16623D01*
Y16885D01*
X22644D01*
X22592Y16832D01*
Y16728D01*
X22644Y16675D01*
X22802D01*
X23064D02*
X22959D01*
X22907Y16728D01*
Y16832D01*
X22959Y16885D01*
X23064D01*
X23117Y16832D01*
Y16780D01*
X22907D01*
X23432Y16990D02*
Y16675D01*
X23274D01*
X23222Y16728D01*
Y16832D01*
X23274Y16885D01*
X23432D01*
X23851Y16990D02*
Y16675D01*
X24009D01*
X24061Y16728D01*
Y16780D01*
Y16832D01*
X24009Y16885D01*
X23851D01*
X24166D02*
Y16728D01*
X24219Y16675D01*
X24376D01*
Y16623D01*
X24324Y16570D01*
X24271D01*
X24376Y16675D02*
Y16885D01*
X21070Y16003D02*
Y16318D01*
X21228D01*
X21280Y16266D01*
Y16161D01*
X21228Y16108D01*
X21070D01*
X21175D02*
X21280Y16003D01*
X21385Y16213D02*
Y16056D01*
X21437Y16003D01*
X21595D01*
Y16213D01*
X21700Y16318D02*
Y16003D01*
X21857D01*
X21910Y16056D01*
Y16108D01*
Y16161D01*
X21857Y16213D01*
X21700D01*
X22172Y16003D02*
X22067D01*
X22015Y16056D01*
Y16161D01*
X22067Y16213D01*
X22172D01*
X22225Y16161D01*
Y16108D01*
X22015D01*
X22330Y16003D02*
Y16213D01*
X22382D01*
X22434Y16161D01*
Y16003D01*
Y16161D01*
X22487Y16213D01*
X22539Y16161D01*
Y16003D01*
X22959D02*
Y16318D01*
X23117D01*
X23169Y16266D01*
Y16161D01*
X23117Y16108D01*
X22959D01*
X23327Y16213D02*
X23432D01*
X23484Y16161D01*
Y16003D01*
X23327D01*
X23274Y16056D01*
X23327Y16108D01*
X23484D01*
X23799Y16213D02*
X23641D01*
X23589Y16161D01*
Y16056D01*
X23641Y16003D01*
X23799D01*
X24061D02*
X23956D01*
X23904Y16056D01*
Y16161D01*
X23956Y16213D01*
X24061D01*
X24114Y16161D01*
Y16108D01*
X23904D01*
X24219Y16003D02*
X24324D01*
X24271D01*
Y16318D01*
X24219D01*
X24481Y16003D02*
X24586D01*
X24534D01*
Y16318D01*
X24481D01*
X24743Y16003D02*
X24848D01*
X24796D01*
Y16213D01*
X24743D01*
X19300Y1800D02*
Y2194D01*
X19497D01*
X19562Y2128D01*
Y1997D01*
X19497Y1931D01*
X19300D01*
X19890Y1800D02*
Y2194D01*
X19694Y1997D01*
X19956D01*
X18934Y803D02*
X19065D01*
X18999D01*
Y1197D01*
X18934Y1131D01*
X23100Y11394D02*
Y11000D01*
X23297D01*
X23362Y11066D01*
Y11328D01*
X23297Y11394D01*
X23100D01*
X23690Y11000D02*
Y11394D01*
X23494Y11197D01*
X23756D01*
X23100Y13364D02*
Y13758D01*
X23297D01*
X23362Y13692D01*
Y13561D01*
X23297Y13495D01*
X23100D01*
X23231D02*
X23362Y13364D01*
X23756Y13758D02*
X23494D01*
Y13561D01*
X23625Y13627D01*
X23690D01*
X23756Y13561D01*
Y13430D01*
X23690Y13364D01*
X23559D01*
X23494Y13430D01*
X21280Y18462D02*
X21228Y18515D01*
X21123D01*
X21070Y18462D01*
Y18252D01*
X21123Y18200D01*
X21228D01*
X21280Y18252D01*
X21437Y18200D02*
X21542D01*
X21595Y18252D01*
Y18357D01*
X21542Y18410D01*
X21437D01*
X21385Y18357D01*
Y18252D01*
X21437Y18200D01*
X21700D02*
Y18410D01*
X21752D01*
X21805Y18357D01*
Y18200D01*
Y18357D01*
X21857Y18410D01*
X21910Y18357D01*
Y18200D01*
X22015Y18095D02*
Y18410D01*
X22172D01*
X22225Y18357D01*
Y18252D01*
X22172Y18200D01*
X22015D01*
X22382Y18410D02*
X22487D01*
X22539Y18357D01*
Y18200D01*
X22382D01*
X22330Y18252D01*
X22382Y18305D01*
X22539D01*
X22697Y18462D02*
Y18410D01*
X22644D01*
X22749D01*
X22697D01*
Y18252D01*
X22749Y18200D01*
X22907D02*
X23012D01*
X22959D01*
Y18410D01*
X22907D01*
X23169Y18515D02*
Y18200D01*
X23327D01*
X23379Y18252D01*
Y18305D01*
Y18357D01*
X23327Y18410D01*
X23169D01*
X23484Y18200D02*
X23589D01*
X23536D01*
Y18515D01*
X23484D01*
X23904Y18200D02*
X23799D01*
X23746Y18252D01*
Y18357D01*
X23799Y18410D01*
X23904D01*
X23956Y18357D01*
Y18305D01*
X23746D01*
X3131Y10122D02*
X3341D01*
X3236Y10227D02*
Y10017D01*
X3656Y10279D02*
X3446D01*
Y10122D01*
X3551Y10174D01*
X3603D01*
X3656Y10122D01*
Y10017D01*
X3603Y9964D01*
X3498D01*
X3446Y10017D01*
X3760Y10279D02*
Y10069D01*
X3865Y9964D01*
X3970Y10069D01*
Y10279D01*
X4075D02*
Y9964D01*
X4233D01*
X4285Y10017D01*
Y10227D01*
X4233Y10279D01*
X4075D01*
X11700Y17800D02*
Y18115D01*
X11857D01*
X11910Y18062D01*
Y17957D01*
X11857Y17905D01*
X11700D01*
X11805D02*
X11910Y17800D01*
X12015Y18115D02*
X12225Y17800D01*
Y18115D02*
X12015Y17800D01*
X11700Y18715D02*
X11910D01*
X11805D01*
Y18400D01*
X12015Y18715D02*
X12225Y18400D01*
Y18715D02*
X12015Y18400D01*
X25000Y18900D02*
X25131D01*
X25066D01*
Y19294D01*
X25000Y19228D01*
X7300Y18900D02*
X7431D01*
X7366D01*
Y19294D01*
X7300Y19228D01*
X142Y11000D02*
X273D01*
X207D01*
Y11394D01*
X142Y11328D01*
X25800Y12738D02*
Y13000D01*
X26062Y12738D01*
X26128D01*
X26194Y12803D01*
Y12934D01*
X26128Y13000D01*
X24800Y12900D02*
Y12769D01*
Y12834D01*
X25194D01*
X25128Y12900D01*
X10000Y750D02*
X10131D01*
X10066D01*
Y1144D01*
X10000Y1078D01*
X18320Y16218D02*
Y15890D01*
X18386Y15824D01*
X18517D01*
X18583Y15890D01*
Y16218D01*
X18714Y16152D02*
X18780Y16218D01*
X18911D01*
X18976Y16152D01*
Y16087D01*
X18911Y16021D01*
X18845D01*
X18911D01*
X18976Y15955D01*
Y15890D01*
X18911Y15824D01*
X18780D01*
X18714Y15890D01*
X13800Y12494D02*
Y12428D01*
X13931Y12297D01*
X14062Y12428D01*
Y12494D01*
X13931Y12297D02*
Y12100D01*
X14194D02*
X14325D01*
X14259D01*
Y12494D01*
X14194Y12428D01*
X9790Y18418D02*
Y18090D01*
X9856Y18024D01*
X9987D01*
X10053Y18090D01*
Y18418D01*
X10446D02*
X10184D01*
Y18221D01*
X10315Y18287D01*
X10381D01*
X10446Y18221D01*
Y18090D01*
X10381Y18024D01*
X10250D01*
X10184Y18090D01*
X250Y9367D02*
Y9039D01*
X315Y8973D01*
X446D01*
X512Y9039D01*
Y9367D01*
X840Y8973D02*
Y9367D01*
X643Y9170D01*
X906D01*
X4945Y6194D02*
Y5866D01*
X5011Y5800D01*
X5142D01*
X5207Y5866D01*
Y6194D01*
X5601Y5800D02*
X5339D01*
X5601Y6062D01*
Y6128D01*
X5535Y6194D01*
X5404D01*
X5339Y6128D01*
X11180Y8908D02*
Y8580D01*
X11246Y8514D01*
X11377D01*
X11443Y8580D01*
Y8908D01*
X11574Y8514D02*
X11705D01*
X11640D01*
Y8908D01*
X11574Y8842D01*
X4362Y19172D02*
X4297Y19238D01*
X4166D01*
X4100Y19172D01*
Y19107D01*
X4166Y19041D01*
X4297D01*
X4362Y18975D01*
Y18910D01*
X4297Y18844D01*
X4166D01*
X4100Y18910D01*
X4494Y18844D02*
X4625D01*
X4559D01*
Y19238D01*
X4494Y19172D01*
X11150Y10000D02*
X10756D01*
Y10197D01*
X10822Y10262D01*
X10953D01*
X11019Y10197D01*
Y10000D01*
Y10131D02*
X11150Y10262D01*
Y10394D02*
Y10525D01*
Y10459D01*
X10756D01*
X10822Y10394D01*
X10756Y10722D02*
Y10984D01*
X10822D01*
X11084Y10722D01*
X11150D01*
X8265Y10097D02*
X7872D01*
Y10294D01*
X7937Y10359D01*
X8069D01*
X8134Y10294D01*
Y10097D01*
Y10228D02*
X8265Y10359D01*
Y10490D02*
Y10622D01*
Y10556D01*
X7872D01*
X7937Y10490D01*
X7872Y11081D02*
X7937Y10950D01*
X8069Y10818D01*
X8200D01*
X8265Y10884D01*
Y11015D01*
X8200Y11081D01*
X8134D01*
X8069Y11015D01*
Y10818D01*
X10946Y12752D02*
X10552D01*
Y12949D01*
X10618Y13014D01*
X10749D01*
X10814Y12949D01*
Y12752D01*
Y12883D02*
X10946Y13014D01*
Y13146D02*
Y13277D01*
Y13211D01*
X10552D01*
X10618Y13146D01*
X10552Y13736D02*
Y13474D01*
X10749D01*
X10683Y13605D01*
Y13670D01*
X10749Y13736D01*
X10880D01*
X10946Y13670D01*
Y13539D01*
X10880Y13474D01*
X8265Y12752D02*
X7872D01*
Y12949D01*
X7937Y13014D01*
X8069D01*
X8134Y12949D01*
Y12752D01*
Y12883D02*
X8265Y13014D01*
Y13146D02*
Y13277D01*
Y13211D01*
X7872D01*
X7937Y13146D01*
X8265Y13670D02*
X7872D01*
X8069Y13474D01*
Y13736D01*
X16200Y18400D02*
Y18794D01*
X16397D01*
X16462Y18728D01*
Y18597D01*
X16397Y18531D01*
X16200D01*
X16331D02*
X16462Y18400D01*
X16594D02*
X16725D01*
X16659D01*
Y18794D01*
X16594Y18728D01*
X16922D02*
X16987Y18794D01*
X17118D01*
X17184Y18728D01*
Y18662D01*
X17118Y18597D01*
X17053D01*
X17118D01*
X17184Y18531D01*
Y18466D01*
X17118Y18400D01*
X16987D01*
X16922Y18466D01*
X16200Y17703D02*
Y18097D01*
X16397D01*
X16462Y18031D01*
Y17900D01*
X16397Y17834D01*
X16200D01*
X16331D02*
X16462Y17703D01*
X16594D02*
X16725D01*
X16659D01*
Y18097D01*
X16594Y18031D01*
X17184Y17703D02*
X16922D01*
X17184Y17966D01*
Y18031D01*
X17118Y18097D01*
X16987D01*
X16922Y18031D01*
X16199Y14316D02*
Y14710D01*
X16396D01*
X16462Y14644D01*
Y14513D01*
X16396Y14447D01*
X16199D01*
X16330D02*
X16462Y14316D01*
X16593D02*
X16724D01*
X16658D01*
Y14710D01*
X16593Y14644D01*
X16921Y14316D02*
X17052D01*
X16986D01*
Y14710D01*
X16921Y14644D01*
X17200Y13300D02*
Y13694D01*
X17397D01*
X17462Y13628D01*
Y13497D01*
X17397Y13431D01*
X17200D01*
X17331D02*
X17462Y13300D01*
X17594D02*
X17725D01*
X17659D01*
Y13694D01*
X17594Y13628D01*
X17922D02*
X17987Y13694D01*
X18118D01*
X18184Y13628D01*
Y13366D01*
X18118Y13300D01*
X17987D01*
X17922Y13366D01*
Y13628D01*
X6927Y17200D02*
Y17594D01*
X7124D01*
X7189Y17528D01*
Y17397D01*
X7124Y17331D01*
X6927D01*
X7058D02*
X7189Y17200D01*
X7320Y17266D02*
X7386Y17200D01*
X7517D01*
X7583Y17266D01*
Y17528D01*
X7517Y17594D01*
X7386D01*
X7320Y17528D01*
Y17462D01*
X7386Y17397D01*
X7583D01*
X6927Y16400D02*
Y16794D01*
X7124D01*
X7189Y16728D01*
Y16597D01*
X7124Y16531D01*
X6927D01*
X7058D02*
X7189Y16400D01*
X7320Y16728D02*
X7386Y16794D01*
X7517D01*
X7583Y16728D01*
Y16662D01*
X7517Y16597D01*
X7583Y16531D01*
Y16466D01*
X7517Y16400D01*
X7386D01*
X7320Y16466D01*
Y16531D01*
X7386Y16597D01*
X7320Y16662D01*
Y16728D01*
X7386Y16597D02*
X7517D01*
X20001Y13100D02*
Y13494D01*
X20198D01*
X20264Y13428D01*
Y13297D01*
X20198Y13231D01*
X20001D01*
X20133D02*
X20264Y13100D01*
X20395Y13494D02*
X20657D01*
Y13428D01*
X20395Y13166D01*
Y13100D01*
X20001Y11200D02*
Y11594D01*
X20198D01*
X20264Y11528D01*
Y11397D01*
X20198Y11331D01*
X20001D01*
X20133D02*
X20264Y11200D01*
X20657Y11594D02*
X20526Y11528D01*
X20395Y11397D01*
Y11266D01*
X20461Y11200D01*
X20592D01*
X20657Y11266D01*
Y11331D01*
X20592Y11397D01*
X20395D01*
X5000Y18800D02*
Y19194D01*
X5197D01*
X5262Y19128D01*
Y18997D01*
X5197Y18931D01*
X5000D01*
X5131D02*
X5262Y18800D01*
X5590D02*
Y19194D01*
X5394Y18997D01*
X5656D01*
X11970Y2988D02*
Y3382D01*
X12167D01*
X12233Y3316D01*
Y3185D01*
X12167Y3119D01*
X11970D01*
X12102D02*
X12233Y2988D01*
X12364Y3316D02*
X12430Y3382D01*
X12561D01*
X12626Y3316D01*
Y3250D01*
X12561Y3185D01*
X12495D01*
X12561D01*
X12626Y3119D01*
Y3054D01*
X12561Y2988D01*
X12430D01*
X12364Y3054D01*
X17100Y12400D02*
Y12794D01*
X17297D01*
X17362Y12728D01*
Y12597D01*
X17297Y12531D01*
X17100D01*
X17231D02*
X17362Y12400D01*
X17756D02*
X17494D01*
X17756Y12662D01*
Y12728D01*
X17690Y12794D01*
X17559D01*
X17494Y12728D01*
X6400Y9442D02*
Y9836D01*
X6597D01*
X6662Y9770D01*
Y9639D01*
X6597Y9574D01*
X6400D01*
X6531D02*
X6662Y9442D01*
X6794D02*
X6925D01*
X6859D01*
Y9836D01*
X6794Y9770D01*
X10880Y11962D02*
X10618D01*
X10552Y11897D01*
Y11766D01*
X10618Y11700D01*
X10880D01*
X10946Y11766D01*
Y11897D01*
X10814Y11831D02*
X10946Y11962D01*
Y11897D02*
X10880Y11962D01*
X10618Y12094D02*
X10552Y12159D01*
Y12290D01*
X10618Y12356D01*
X10683D01*
X10749Y12290D01*
Y12225D01*
Y12290D01*
X10814Y12356D01*
X10880D01*
X10946Y12290D01*
Y12159D01*
X10880Y12094D01*
X8200Y11885D02*
X7937D01*
X7872Y11820D01*
Y11689D01*
X7937Y11623D01*
X8200D01*
X8265Y11689D01*
Y11820D01*
X8134Y11754D02*
X8265Y11885D01*
Y11820D02*
X8200Y11885D01*
X8265Y12279D02*
Y12017D01*
X8003Y12279D01*
X7937D01*
X7872Y12213D01*
Y12082D01*
X7937Y12017D01*
X14582Y16776D02*
Y17038D01*
X14517Y17104D01*
X14386D01*
X14320Y17038D01*
Y16776D01*
X14386Y16710D01*
X14517D01*
X14451Y16841D02*
X14582Y16710D01*
X14517D02*
X14582Y16776D01*
X14714Y16710D02*
X14845D01*
X14779D01*
Y17104D01*
X14714Y17038D01*
X4791Y11900D02*
Y12294D01*
X4988D01*
X5054Y12228D01*
Y12097D01*
X4988Y12031D01*
X4791D01*
X5185Y12228D02*
X5250Y12294D01*
X5382D01*
X5447Y12228D01*
Y12162D01*
X5382Y12097D01*
X5447Y12031D01*
Y11966D01*
X5382Y11900D01*
X5250D01*
X5185Y11966D01*
Y12031D01*
X5250Y12097D01*
X5185Y12162D01*
Y12228D01*
X5250Y12097D02*
X5382D01*
X200Y17700D02*
Y18094D01*
X397D01*
X462Y18028D01*
Y17897D01*
X397Y17831D01*
X200D01*
X594Y18094D02*
X856D01*
Y18028D01*
X594Y17766D01*
Y17700D01*
X6000Y18800D02*
Y19194D01*
X6197D01*
X6262Y19128D01*
Y18997D01*
X6197Y18931D01*
X6000D01*
X6656Y19194D02*
X6525Y19128D01*
X6394Y18997D01*
Y18866D01*
X6459Y18800D01*
X6590D01*
X6656Y18866D01*
Y18931D01*
X6590Y18997D01*
X6394D01*
X17600Y18800D02*
Y19194D01*
X17797D01*
X17862Y19128D01*
Y18997D01*
X17797Y18931D01*
X17600D01*
X18256Y19194D02*
X17994D01*
Y18997D01*
X18125Y19062D01*
X18190D01*
X18256Y18997D01*
Y18866D01*
X18190Y18800D01*
X18059D01*
X17994Y18866D01*
X24540Y13354D02*
Y13748D01*
X24737D01*
X24803Y13682D01*
Y13551D01*
X24737Y13485D01*
X24540D01*
X24934Y13682D02*
X25000Y13748D01*
X25131D01*
X25196Y13682D01*
Y13617D01*
X25131Y13551D01*
X25065D01*
X25131D01*
X25196Y13485D01*
Y13420D01*
X25131Y13354D01*
X25000D01*
X24934Y13420D01*
X250Y5100D02*
Y5494D01*
X446D01*
X512Y5428D01*
Y5297D01*
X446Y5231D01*
X250D01*
X906Y5100D02*
X643D01*
X906Y5362D01*
Y5428D01*
X840Y5494D01*
X709D01*
X643Y5428D01*
X10000Y1814D02*
Y2208D01*
X10197D01*
X10263Y2142D01*
Y2011D01*
X10197Y1945D01*
X10000D01*
X10394Y1814D02*
X10525D01*
X10460D01*
Y2208D01*
X10394Y2142D01*
X5282Y14974D02*
X5020D01*
Y14777D01*
X5151D01*
X5020D01*
Y14580D01*
X5414D02*
X5545D01*
X5479D01*
Y14974D01*
X5414Y14908D01*
X13900Y18797D02*
Y18403D01*
X14097D01*
X14162Y18469D01*
Y18731D01*
X14097Y18797D01*
X13900D01*
X14556D02*
X14425Y18731D01*
X14294Y18600D01*
Y18469D01*
X14359Y18403D01*
X14490D01*
X14556Y18469D01*
Y18534D01*
X14490Y18600D01*
X14294D01*
X13900Y18097D02*
Y17703D01*
X14097D01*
X14162Y17769D01*
Y18031D01*
X14097Y18097D01*
X13900D01*
X14556D02*
X14294D01*
Y17900D01*
X14425Y17966D01*
X14490D01*
X14556Y17900D01*
Y17769D01*
X14490Y17703D01*
X14359D01*
X14294Y17769D01*
X9200Y9405D02*
Y9011D01*
X9397D01*
X9462Y9077D01*
Y9339D01*
X9397Y9405D01*
X9200D01*
X9594Y9339D02*
X9659Y9405D01*
X9790D01*
X9856Y9339D01*
Y9273D01*
X9790Y9208D01*
X9725D01*
X9790D01*
X9856Y9142D01*
Y9077D01*
X9790Y9011D01*
X9659D01*
X9594Y9077D01*
X2300Y9836D02*
Y9442D01*
X2496D01*
X2562Y9508D01*
Y9770D01*
X2496Y9836D01*
X2300D01*
X2956Y9442D02*
X2693D01*
X2956Y9705D01*
Y9770D01*
X2890Y9836D01*
X2759D01*
X2693Y9770D01*
X8235Y4894D02*
Y4500D01*
X8431D01*
X8497Y4566D01*
Y4828D01*
X8431Y4894D01*
X8235D01*
X8628Y4500D02*
X8759D01*
X8694D01*
Y4894D01*
X8628Y4828D01*
X12462Y9728D02*
X12397Y9794D01*
X12266D01*
X12200Y9728D01*
Y9466D01*
X12266Y9400D01*
X12397D01*
X12462Y9466D01*
X12594Y9400D02*
X12725D01*
X12659D01*
Y9794D01*
X12594Y9728D01*
X12922D02*
X12987Y9794D01*
X13118D01*
X13184Y9728D01*
Y9662D01*
X13118Y9597D01*
X13184Y9531D01*
Y9466D01*
X13118Y9400D01*
X12987D01*
X12922Y9466D01*
Y9531D01*
X12987Y9597D01*
X12922Y9662D01*
Y9728D01*
X12987Y9597D02*
X13118D01*
X13192Y16915D02*
X13126Y16980D01*
X12995D01*
X12929Y16915D01*
Y16652D01*
X12995Y16587D01*
X13126D01*
X13192Y16652D01*
X13323Y16587D02*
X13454D01*
X13388D01*
Y16980D01*
X13323Y16915D01*
X13651Y16980D02*
X13913D01*
Y16915D01*
X13651Y16652D01*
Y16587D01*
X20264Y12669D02*
X20198Y12735D01*
X20067D01*
X20001Y12669D01*
Y12407D01*
X20067Y12341D01*
X20198D01*
X20264Y12407D01*
X20395Y12341D02*
X20526D01*
X20461D01*
Y12735D01*
X20395Y12669D01*
X20920Y12341D02*
Y12735D01*
X20723Y12538D01*
X20985D01*
X6861Y18231D02*
X6796Y18297D01*
X6664D01*
X6599Y18231D01*
Y17969D01*
X6664Y17903D01*
X6796D01*
X6861Y17969D01*
X6992Y17903D02*
X7124D01*
X7058D01*
Y18297D01*
X6992Y18231D01*
X7320D02*
X7386Y18297D01*
X7517D01*
X7583Y18231D01*
Y18166D01*
X7517Y18100D01*
X7452D01*
X7517D01*
X7583Y18034D01*
Y17969D01*
X7517Y17903D01*
X7386D01*
X7320Y17969D01*
X6861Y16074D02*
X6796Y16139D01*
X6664D01*
X6599Y16074D01*
Y15811D01*
X6664Y15746D01*
X6796D01*
X6861Y15811D01*
X6992Y15746D02*
X7124D01*
X7058D01*
Y16139D01*
X6992Y16074D01*
X7583Y15746D02*
X7320D01*
X7583Y16008D01*
Y16074D01*
X7517Y16139D01*
X7386D01*
X7320Y16074D01*
X5093Y8498D02*
X5027Y8564D01*
X4896D01*
X4830Y8498D01*
Y8236D01*
X4896Y8171D01*
X5027D01*
X5093Y8236D01*
X5224D02*
X5290Y8171D01*
X5421D01*
X5486Y8236D01*
Y8498D01*
X5421Y8564D01*
X5290D01*
X5224Y8498D01*
Y8433D01*
X5290Y8367D01*
X5486D01*
X4162Y8498D02*
X4097Y8564D01*
X3966D01*
X3900Y8498D01*
Y8236D01*
X3966Y8171D01*
X4097D01*
X4162Y8236D01*
X4294Y8498D02*
X4359Y8564D01*
X4490D01*
X4556Y8498D01*
Y8433D01*
X4490Y8367D01*
X4556Y8302D01*
Y8236D01*
X4490Y8171D01*
X4359D01*
X4294Y8236D01*
Y8302D01*
X4359Y8367D01*
X4294Y8433D01*
Y8498D01*
X4359Y8367D02*
X4490D01*
X15253Y9442D02*
X15187Y9508D01*
X15056D01*
X14990Y9442D01*
Y9180D01*
X15056Y9114D01*
X15187D01*
X15253Y9180D01*
X15646Y9508D02*
X15515Y9442D01*
X15384Y9311D01*
Y9180D01*
X15450Y9114D01*
X15581D01*
X15646Y9180D01*
Y9245D01*
X15581Y9311D01*
X15384D01*
X16873Y9442D02*
X16807Y9508D01*
X16676D01*
X16610Y9442D01*
Y9180D01*
X16676Y9114D01*
X16807D01*
X16873Y9180D01*
X17266Y9508D02*
X17004D01*
Y9311D01*
X17135Y9377D01*
X17201D01*
X17266Y9311D01*
Y9180D01*
X17201Y9114D01*
X17070D01*
X17004Y9180D01*
X5962Y2428D02*
X5897Y2494D01*
X5766D01*
X5700Y2428D01*
Y2166D01*
X5766Y2100D01*
X5897D01*
X5962Y2166D01*
X6094Y2428D02*
X6159Y2494D01*
X6290D01*
X6356Y2428D01*
Y2362D01*
X6290Y2297D01*
X6225D01*
X6290D01*
X6356Y2231D01*
Y2166D01*
X6290Y2100D01*
X6159D01*
X6094Y2166D01*
X17662Y3006D02*
X17597Y3072D01*
X17466D01*
X17400Y3006D01*
Y2744D01*
X17466Y2678D01*
X17597D01*
X17662Y2744D01*
X18056Y2678D02*
X17794D01*
X18056Y2941D01*
Y3006D01*
X17990Y3072D01*
X17859D01*
X17794Y3006D01*
D13*
X20783Y14296D02*
G03*
X20783Y14296I-0J0D01*
G01*
X8031Y4355D02*
Y5043D01*
X3242Y18419D02*
Y20781D01*
X958D02*
X3242D01*
X958Y18419D02*
Y20781D01*
Y18419D02*
X3242D01*
X5175Y14248D02*
X7025D01*
X5175Y12752D02*
X7025D01*
D14*
X23203Y10769D02*
X23597D01*
X23100Y13050D02*
X23700D01*
X23100Y11750D02*
Y13050D01*
Y11750D02*
X23700D01*
Y13050D01*
X19750Y13200D02*
Y13800D01*
X18450D02*
X19750D01*
X18450Y13200D02*
Y13800D01*
Y13200D02*
X19750D01*
X14449Y14216D02*
Y14816D01*
Y14216D02*
X15749D01*
Y14816D01*
X14449D02*
X15749D01*
X15250Y12200D02*
Y13000D01*
Y12200D02*
X16750D01*
Y13000D01*
X15250D02*
X16750D01*
X21150D02*
Y13600D01*
Y13000D02*
X22450D01*
Y13600D01*
X21150D02*
X22450D01*
X22450Y11100D02*
Y11700D01*
X21150D02*
X22450D01*
X21150Y11100D02*
Y11700D01*
Y11100D02*
X22450D01*
X16050Y18300D02*
Y18900D01*
X14750D02*
X16050D01*
X14750Y18300D02*
Y18900D01*
Y18300D02*
X16050D01*
X14750Y17600D02*
Y18200D01*
Y17600D02*
X16050D01*
Y18200D01*
X14750D02*
X16050D01*
X12531Y18403D02*
Y18797D01*
Y17703D02*
Y18097D01*
X8800Y9850D02*
X9400D01*
Y11150D01*
X8800D02*
X9400D01*
X8800Y9850D02*
Y11150D01*
X11500Y11150D02*
X12100D01*
X11500Y9850D02*
Y11150D01*
Y9850D02*
X12100D01*
Y11150D01*
X11150Y13000D02*
Y13600D01*
Y13000D02*
X12450D01*
Y13600D01*
X11150D02*
X12450D01*
X9751Y13000D02*
Y13600D01*
X8451D02*
X9751D01*
X8451Y13000D02*
Y13600D01*
Y13000D02*
X9751D01*
X6250Y9300D02*
Y9900D01*
X4950D02*
X6250D01*
X4950Y9300D02*
Y9900D01*
Y9300D02*
X6250D01*
X3131Y9403D02*
Y9797D01*
X9150Y17100D02*
Y17700D01*
X7850D02*
X9150D01*
X7850Y17100D02*
Y17700D01*
Y17100D02*
X9150D01*
Y16300D02*
Y16900D01*
X7850D02*
X9150D01*
X7850Y16300D02*
Y16900D01*
Y16300D02*
X9150D01*
X11650Y3600D02*
Y4200D01*
Y3600D02*
X12950D01*
Y4200D01*
X11650D02*
X12950D01*
X4191Y19487D02*
X4791D01*
Y20787D01*
X4191D02*
X4791D01*
X4191Y19487D02*
Y20787D01*
D15*
X-1926Y12688D02*
X1342D01*
X-1926D02*
Y17452D01*
X1342D01*
X2916Y12688D02*
X4570D01*
Y17452D01*
X2916D02*
X4570D01*
D16*
X18802Y15516D02*
X20582D01*
X18810Y14296D02*
X20582D01*
D17*
X23000Y17359D02*
Y17595D01*
X23118D01*
X23157Y17556D01*
Y17477D01*
X23118Y17438D01*
X23000D01*
X23079D02*
X23157Y17359D01*
X23394Y17595D02*
X23236D01*
Y17359D01*
X23394D01*
X23236Y17477D02*
X23315D01*
X23472Y17595D02*
Y17438D01*
X23551Y17359D01*
X23630Y17438D01*
Y17595D01*
X23708Y17556D02*
X23748Y17595D01*
X23826D01*
X23866Y17556D01*
Y17516D01*
X23826Y17477D01*
X23787D01*
X23826D01*
X23866Y17438D01*
Y17398D01*
X23826Y17359D01*
X23748D01*
X23708Y17398D01*
M02*
