G04*
G04 #@! TF.GenerationSoftware,Altium Limited,Altium Designer,19.0.10 (269)*
G04*
G04 Layer_Color=128*
%FSLAX24Y24*%
%MOIN*%
G70*
G01*
G75*
%ADD86C,0.0050*%
D86*
X19755Y1000D02*
X20228D01*
X19991Y764D02*
Y1236D01*
X20755Y1000D02*
X21228D01*
X20991Y764D02*
Y1236D01*
X21755Y1000D02*
X22228D01*
X21991Y764D02*
Y1236D01*
X22755Y1000D02*
X23228D01*
X22991Y764D02*
Y1236D01*
X23755Y1000D02*
X24228D01*
X23991Y764D02*
Y1236D01*
X24755Y1000D02*
X25228D01*
X24991Y764D02*
Y1236D01*
X1655Y12700D02*
X2603D01*
X2129Y12226D02*
Y13174D01*
X1655Y17440D02*
X2603D01*
X2129Y16966D02*
Y17915D01*
X2999Y14578D02*
X3393D01*
X3196Y14381D02*
Y14775D01*
X2999Y15562D02*
X3393D01*
X3196Y15365D02*
Y15759D01*
X3786Y15562D02*
X4180D01*
X3983Y15365D02*
Y15759D01*
X3786Y14578D02*
X4180D01*
X3983Y14381D02*
Y14775D01*
X3862Y3000D02*
X4925D01*
X4394Y2469D02*
Y3532D01*
X1421Y3000D02*
X2484D01*
X1953Y2469D02*
Y3532D01*
X2701Y1031D02*
X3567D01*
X3134Y598D02*
Y1465D01*
X25380Y14000D02*
X26620D01*
X26000Y13380D02*
Y14620D01*
X5380Y20000D02*
X6620D01*
X6000Y19380D02*
Y20620D01*
X4929Y1000D02*
X6169D01*
X5549Y380D02*
Y1620D01*
X25380Y3000D02*
X26620D01*
X26000Y2380D02*
Y3620D01*
X24803Y20000D02*
X25197D01*
X25000Y19803D02*
Y20197D01*
X23803Y20000D02*
X24197D01*
X24000Y19803D02*
Y20197D01*
X22803Y20000D02*
X23197D01*
X23000Y19803D02*
Y20197D01*
X21803Y20000D02*
X22197D01*
X22000Y19803D02*
Y20197D01*
X20803Y20000D02*
X21197D01*
X21000Y19803D02*
Y20197D01*
X19803Y20000D02*
X20197D01*
X20000Y19803D02*
Y20197D01*
X18803Y20000D02*
X19197D01*
X19000Y19803D02*
Y20197D01*
X17803Y20000D02*
X18197D01*
X18000Y19803D02*
Y20197D01*
X7223Y20000D02*
X7577D01*
X7400Y19823D02*
Y20177D01*
X8223Y20000D02*
X8577D01*
X8400Y19823D02*
Y20177D01*
X10223Y20000D02*
X10577D01*
X10400Y19823D02*
Y20177D01*
X11223Y20000D02*
X11577D01*
X11400Y19823D02*
Y20177D01*
X12223Y20000D02*
X12577D01*
X12400Y19823D02*
Y20177D01*
X13223Y20000D02*
X13577D01*
X13400Y19823D02*
Y20177D01*
X14223Y20000D02*
X14577D01*
X14400Y19823D02*
Y20177D01*
X15223Y20000D02*
X15577D01*
X15400Y19823D02*
Y20177D01*
X16223Y20000D02*
X16577D01*
X16400Y19823D02*
Y20177D01*
X9223Y20000D02*
X9577D01*
X9400Y19823D02*
Y20177D01*
X5845Y11200D02*
X6239D01*
X6042Y11003D02*
Y11397D01*
X4845Y11200D02*
X5239D01*
X5042Y11003D02*
Y11397D01*
X3845Y11200D02*
X4239D01*
X4042Y11003D02*
Y11397D01*
X2845Y11200D02*
X3239D01*
X3042Y11003D02*
Y11397D01*
X1845Y11200D02*
X2239D01*
X2042Y11003D02*
Y11397D01*
X845Y11200D02*
X1239D01*
X1042Y11003D02*
Y11397D01*
X11523Y4900D02*
X11877D01*
X11700Y4723D02*
Y5077D01*
X12523Y4900D02*
X12877D01*
X12700Y4723D02*
Y5077D01*
X13523Y4900D02*
X13877D01*
X13700Y4723D02*
Y5077D01*
X14523Y4900D02*
X14877D01*
X14700Y4723D02*
Y5077D01*
X15523Y4900D02*
X15877D01*
X15700Y4723D02*
Y5077D01*
X16523Y4900D02*
X16877D01*
X16700Y4723D02*
Y5077D01*
X17523Y4900D02*
X17877D01*
X17700Y4723D02*
Y5077D01*
X18523Y4900D02*
X18877D01*
X18700Y4723D02*
Y5077D01*
X19523Y4900D02*
X19877D01*
X19700Y4723D02*
Y5077D01*
X20523Y4900D02*
X20877D01*
X20700Y4723D02*
Y5077D01*
X21523Y4900D02*
X21877D01*
X21700Y4723D02*
Y5077D01*
X22523Y4900D02*
X22877D01*
X22700Y4723D02*
Y5077D01*
X23523Y4900D02*
X23877D01*
X23700Y4723D02*
Y5077D01*
X24523Y4900D02*
X24877D01*
X24700Y4723D02*
Y5077D01*
X11523Y7900D02*
X11877D01*
X11700Y7723D02*
Y8077D01*
X12523Y7900D02*
X12877D01*
X12700Y7723D02*
Y8077D01*
X13523Y7900D02*
X13877D01*
X13700Y7723D02*
Y8077D01*
X14523Y7900D02*
X14877D01*
X14700Y7723D02*
Y8077D01*
X15523Y7900D02*
X15877D01*
X15700Y7723D02*
Y8077D01*
X16523Y7900D02*
X16877D01*
X16700Y7723D02*
Y8077D01*
X17523Y7900D02*
X17877D01*
X17700Y7723D02*
Y8077D01*
X18523Y7900D02*
X18877D01*
X18700Y7723D02*
Y8077D01*
X19523Y7900D02*
X19877D01*
X19700Y7723D02*
Y8077D01*
X20523Y7900D02*
X20877D01*
X20700Y7723D02*
Y8077D01*
X21523Y7900D02*
X21877D01*
X21700Y7723D02*
Y8077D01*
X22523Y7900D02*
X22877D01*
X22700Y7723D02*
Y8077D01*
X23523Y7900D02*
X23877D01*
X23700Y7723D02*
Y8077D01*
X24523Y7900D02*
X24877D01*
X24700Y7723D02*
Y8077D01*
X24803Y12000D02*
X25197D01*
X25000Y11803D02*
Y12197D01*
X25803Y12000D02*
X26197D01*
X26000Y11803D02*
Y12197D01*
X24803Y11000D02*
X25197D01*
X25000Y10803D02*
Y11197D01*
X25803Y11000D02*
X26197D01*
X26000Y10803D02*
Y11197D01*
X24803Y10000D02*
X25197D01*
X25000Y9803D02*
Y10197D01*
X25803Y10000D02*
X26197D01*
X26000Y9803D02*
Y10197D01*
X17803Y1000D02*
X18197D01*
X18000Y803D02*
Y1197D01*
X16803Y1000D02*
X17197D01*
X17000Y803D02*
Y1197D01*
X15803Y1000D02*
X16197D01*
X16000Y803D02*
Y1197D01*
X14803Y1000D02*
X15197D01*
X15000Y803D02*
Y1197D01*
X13803Y1000D02*
X14197D01*
X14000Y803D02*
Y1197D01*
X12803Y1000D02*
X13197D01*
X13000Y803D02*
Y1197D01*
X11803Y1000D02*
X12197D01*
X12000Y803D02*
Y1197D01*
X10803Y1000D02*
X11197D01*
X11000Y803D02*
Y1197D01*
X20269Y15775D02*
X20389D01*
X20329Y15715D02*
Y15835D01*
X20020Y13700D02*
X20140D01*
X20080Y13640D02*
Y13760D01*
X20340Y14023D02*
X20460D01*
X20400Y13963D02*
Y14083D01*
X21520Y7200D02*
X21640D01*
X21580Y7140D02*
Y7260D01*
X22155Y12000D02*
X22275D01*
X22215Y11940D02*
Y12060D01*
X8940Y3700D02*
X9060D01*
X9000Y3640D02*
Y3760D01*
X11140Y16300D02*
X11260D01*
X11200Y16240D02*
Y16360D01*
X21300Y13774D02*
X21420D01*
X21360Y13714D02*
Y13834D01*
X20260Y12874D02*
X20380D01*
X20320Y12814D02*
Y12934D01*
X12140Y5400D02*
X12260D01*
X12200Y5340D02*
Y5460D01*
X2196Y6356D02*
X2316D01*
X2256Y6296D02*
Y6416D01*
X23720Y10435D02*
X23840D01*
X23780Y10375D02*
Y10495D01*
X21016Y13300D02*
X21136D01*
X21076Y13240D02*
Y13360D01*
X20020Y16244D02*
X20140D01*
X20080Y16184D02*
Y16304D01*
X19040Y16244D02*
X19160D01*
X19100Y16184D02*
Y16304D01*
X20750Y15524D02*
X20870D01*
X20810Y15464D02*
Y15584D01*
X22260Y15524D02*
X22380D01*
X22320Y15464D02*
Y15584D01*
X9425Y16125D02*
X9545D01*
X9485Y16065D02*
Y16185D01*
X13475Y17242D02*
X13595D01*
X13535Y17182D02*
Y17302D01*
X10820Y12084D02*
X10940D01*
X10880Y12024D02*
Y12144D01*
X14170Y14665D02*
X14290D01*
X14230Y14605D02*
Y14725D01*
X15130Y8244D02*
X15250D01*
X15190Y8184D02*
Y8304D01*
X19230Y11774D02*
X19350D01*
X19290Y11714D02*
Y11834D01*
X10430Y12334D02*
X10550D01*
X10490Y12274D02*
Y12394D01*
X11930Y13814D02*
X12050D01*
X11990Y13754D02*
Y13874D01*
X9840Y19584D02*
X9960D01*
X9900Y19524D02*
Y19644D01*
X9970Y10165D02*
X10090D01*
X10030Y10105D02*
Y10225D01*
X15340Y11264D02*
X15460D01*
X15400Y11204D02*
Y11324D01*
X17620Y15115D02*
X17740D01*
X17680Y15055D02*
Y15175D01*
X16390Y15614D02*
X16510D01*
X16450Y15554D02*
Y15674D01*
X25160Y14844D02*
X25280D01*
X25220Y14784D02*
Y14904D01*
X19182Y17463D02*
X19302D01*
X19242Y17403D02*
Y17523D01*
X16314Y8261D02*
X16434D01*
X16374Y8201D02*
Y8321D01*
X21560Y14954D02*
X21680D01*
X21620Y14894D02*
Y15014D01*
X23340Y14954D02*
X23460D01*
X23400Y14894D02*
Y15014D01*
X2180Y4874D02*
X2300D01*
X2240Y4814D02*
Y4934D01*
X13230Y4314D02*
X13350D01*
X13290Y4254D02*
Y4374D01*
X21880Y6154D02*
X22000D01*
X21940Y6094D02*
Y6214D01*
X14130Y3504D02*
X14250D01*
X14190Y3444D02*
Y3564D01*
X17060Y19634D02*
X17180D01*
X17120Y19574D02*
Y19694D01*
X17310Y2904D02*
X17430D01*
X17370Y2844D02*
Y2964D01*
X7210Y17874D02*
X7330D01*
X7270Y17814D02*
Y17934D01*
X880Y18314D02*
X1000D01*
X940Y18254D02*
Y18374D01*
X19040Y14516D02*
X19160D01*
X19100Y14456D02*
Y14576D01*
X11115Y15775D02*
X11235D01*
X11175Y15715D02*
Y15835D01*
X12471Y17400D02*
X12591D01*
X12531Y17340D02*
Y17460D01*
X14910Y9400D02*
X15060D01*
X14985Y9325D02*
Y9475D01*
X3740Y7274D02*
X3860D01*
X3800Y7214D02*
Y7334D01*
X2140Y8167D02*
X2260D01*
X2200Y8107D02*
Y8227D01*
X2140Y7262D02*
X2260D01*
X2200Y7202D02*
Y7322D01*
X8940Y1000D02*
X9060D01*
X9000Y940D02*
Y1060D01*
M02*
