G04*
G04 #@! TF.GenerationSoftware,Altium Limited,Altium Designer,19.0.10 (269)*
G04*
G04 Layer_Physical_Order=2*
G04 Layer_Color=16711680*
%FSLAX24Y24*%
%MOIN*%
G70*
G01*
G75*
%ADD13C,0.0100*%
%ADD18R,0.0394X0.0433*%
%ADD20R,0.0433X0.0394*%
%ADD28R,0.0591X0.0512*%
%ADD35C,0.0157*%
%ADD68C,0.0394*%
%ADD69C,0.0197*%
%ADD70R,0.0709X0.0709*%
%ADD71C,0.0709*%
%ADD72C,0.1423*%
%ADD73C,0.0591*%
%ADD74O,0.1378X0.1575*%
%ADD75O,0.1378X0.1181*%
%ADD76C,0.1299*%
%ADD77R,0.0630X0.0630*%
%ADD78C,0.0630*%
%ADD79R,0.0591X0.0591*%
%ADD80R,0.0591X0.0591*%
%ADD81R,0.0630X0.0630*%
%ADD82C,0.0240*%
G36*
X3665Y20486D02*
D01*
D02*
G37*
D13*
X20480Y13300D02*
X21076D01*
X20080Y13700D02*
X20480Y13300D01*
X20400Y14023D02*
X21977D01*
X25000Y11000D01*
X19240Y7574D02*
X19615Y7200D01*
X21580D01*
X19240Y7574D02*
Y10024D01*
X19100Y16244D02*
X20080D01*
X13535Y17242D02*
X13680Y17097D01*
Y14884D02*
Y17097D01*
X10880Y12084D02*
X13680Y14884D01*
X23270Y6330D02*
X24700Y4900D01*
X23270Y6330D02*
Y9424D01*
X18850Y13844D02*
X23270Y9424D01*
X18850Y13844D02*
Y18470D01*
X17556Y19764D02*
X18850Y18470D01*
X17556Y19764D02*
Y19978D01*
X16921Y20614D02*
X17556Y19978D01*
X8014Y20614D02*
X16921D01*
X7400Y20000D02*
X8014Y20614D01*
X4042Y11200D02*
X6810Y13969D01*
Y20424D01*
X7180Y20794D01*
X24206D01*
X25000Y20000D01*
X18000Y11264D02*
X19240Y10024D01*
X15400Y11264D02*
X18000D01*
X13780Y11215D02*
X17680Y15115D01*
X13780Y8820D02*
Y11215D01*
Y8820D02*
X14700Y7900D01*
X16450Y14524D02*
Y15614D01*
X12700Y10774D02*
X16450Y14524D01*
X12700Y7900D02*
Y10774D01*
X15400Y14292D02*
Y20000D01*
X11276Y10168D02*
X15400Y14292D01*
X11276Y5324D02*
Y10168D01*
Y5324D02*
X11700Y4900D01*
X12274Y4474D02*
X12700Y4900D01*
X11420Y4474D02*
X12274D01*
X11097Y4797D02*
X11420Y4474D01*
X11097Y4797D02*
Y10489D01*
X14818Y14209D01*
Y19582D01*
X14400Y20000D02*
X14818Y19582D01*
X22602Y17463D02*
X25220Y14844D01*
X19242Y17463D02*
X22602D01*
X16374Y8261D02*
X16700Y7935D01*
X21620Y14954D02*
X23400D01*
X9126Y4874D02*
X13000Y1000D01*
X2240Y4874D02*
X9126D01*
X24700Y7900D02*
X25130Y7470D01*
Y4724D02*
Y7470D01*
X24703Y4297D02*
X25130Y4724D01*
X13307Y4297D02*
X24703D01*
X13290Y4314D02*
X13307Y4297D01*
X15700Y4900D02*
X16015D01*
X16439Y4476D01*
X16952D01*
X17230Y4754D01*
Y5054D01*
X18330Y6154D01*
X21940D01*
X25000Y12000D02*
X25446Y11554D01*
X26200D01*
X26630Y11124D01*
Y5194D02*
Y11124D01*
X24940Y3504D02*
X26630Y5194D01*
X14190Y3504D02*
X24940D01*
X26000Y11000D02*
X26450Y10550D01*
Y5791D02*
Y10550D01*
X24723Y4064D02*
X26450Y5791D01*
X13140Y4064D02*
X24723D01*
X13040Y4164D02*
X13140Y4064D01*
X13040Y4164D02*
Y4564D01*
X13376Y4900D01*
X13700D01*
X13389Y8211D02*
X13700Y7900D01*
X13389Y8211D02*
Y11133D01*
X17120Y14864D01*
Y19634D01*
X11700Y7900D02*
Y10135D01*
X15606Y14041D01*
Y19206D01*
X16400Y20000D01*
X12560Y2904D02*
X17370D01*
X9160Y6304D02*
X12560Y2904D01*
X9160Y6304D02*
Y19760D01*
X9400Y20000D01*
X7270Y14124D02*
Y17874D01*
X4590Y11444D02*
X7270Y14124D01*
X4590Y11034D02*
Y11444D01*
X4060Y10504D02*
X4590Y11034D01*
X3738Y10504D02*
X4060D01*
X3042Y11200D02*
X3738Y10504D01*
X22260Y6340D02*
X23700Y4900D01*
X22260Y6340D02*
Y9434D01*
X18530Y13164D02*
X22260Y9434D01*
X18530Y13164D02*
Y18451D01*
X17378Y19604D02*
X18530Y18451D01*
X17378Y19604D02*
Y19767D01*
X16720Y20424D02*
X17378Y19767D01*
X8824Y20424D02*
X16720D01*
X8400Y20000D02*
X8824Y20424D01*
D18*
X9000Y1528D02*
D03*
Y2197D02*
D03*
X19750Y14665D02*
D03*
Y15335D02*
D03*
X11200Y16765D02*
D03*
Y17435D02*
D03*
X11200Y15235D02*
D03*
Y14565D02*
D03*
X760Y8155D02*
D03*
Y7485D02*
D03*
D20*
X17965Y7148D02*
D03*
X18635D02*
D03*
D28*
X1600Y7274D02*
D03*
Y6526D02*
D03*
D35*
X19887Y15775D02*
X20329D01*
X19750Y15638D02*
X19887Y15775D01*
X19750Y15335D02*
Y15638D01*
X18635Y6835D02*
Y7148D01*
X18700Y7194D02*
Y7900D01*
X18654Y7148D02*
X18700Y7194D01*
X22215Y12000D02*
X23780Y10435D01*
X9501Y16109D02*
X11123Y14488D01*
X11200Y16300D02*
Y16765D01*
X11123Y14488D02*
X11200Y14410D01*
X17400Y9400D02*
X17700Y9100D01*
X14985Y9400D02*
X17400D01*
X17700Y7900D02*
Y9100D01*
X17680Y7413D02*
Y7880D01*
X17700Y7900D01*
X17680Y7413D02*
X17946Y7148D01*
X21360Y13044D02*
Y13774D01*
X21190Y12874D02*
X21360Y13044D01*
X20320Y12874D02*
X21190D01*
X16200Y5400D02*
X16700Y4900D01*
X12200Y5400D02*
X16200D01*
X11200Y13674D02*
Y14410D01*
X9485Y16125D02*
X9501Y16109D01*
X20810Y15524D02*
X22320D01*
X9485Y16125D02*
Y16300D01*
X9890Y16705D01*
X9900Y19584D01*
X11371Y11807D02*
X14230Y14665D01*
X10169Y11807D02*
X11371D01*
X10030Y11946D02*
X10169Y11807D01*
X11560Y15940D02*
X11990Y15510D01*
X11488Y16012D02*
X11560Y15940D01*
Y13404D02*
Y15940D01*
X10030Y11946D02*
Y12504D01*
Y10165D02*
Y11946D01*
X14510Y8924D02*
X15190Y8244D01*
X14510Y8924D02*
Y10994D01*
X15290Y11774D01*
X19290D01*
X11200Y16300D02*
X11488Y16012D01*
X10490Y12334D02*
X11560Y13404D01*
X11990Y13814D02*
Y15510D01*
X16700Y4900D02*
X18635Y6835D01*
X10030Y12504D02*
X11200Y13674D01*
X519Y7485D02*
X760D01*
X400Y7604D02*
X519Y7485D01*
X400Y7604D02*
Y10559D01*
X1042Y11200D01*
X19750Y14665D02*
X23335D01*
X26000Y12000D01*
X940Y18314D02*
X1255D01*
X2129Y17440D01*
X11200Y17435D02*
Y19200D01*
X10400Y20000D02*
X11200Y19200D01*
X19100Y14516D02*
X19116Y14532D01*
X19632D01*
X19750Y14650D01*
Y14665D01*
X11175Y15260D02*
Y15775D01*
Y15260D02*
X11200Y15235D01*
X11200D02*
X11200D01*
Y17435D02*
X11235Y17400D01*
X12531D01*
D68*
X760Y8167D02*
X2200D01*
X9634Y367D02*
X15353D01*
X3800Y7274D02*
X7726D01*
X9000Y2197D02*
Y3700D01*
X2086Y6526D02*
X2256Y6356D01*
X1600Y6526D02*
X2086D01*
X760Y6856D02*
Y7485D01*
Y6856D02*
X1031Y6585D01*
X1541D02*
X1600Y6526D01*
X1031Y6585D02*
X1541D01*
X16000Y1000D02*
X17000D01*
X9000Y1000D02*
X9634Y367D01*
X15353D02*
X15986Y1000D01*
X16000D01*
X7726Y7274D02*
X14000Y1000D01*
X17946Y7148D02*
X17965D01*
X18635D02*
X18654D01*
X760Y8155D02*
Y8167D01*
X1612Y7262D02*
X2200D01*
X1600Y7274D02*
X1612Y7262D01*
X9000Y1000D02*
Y1528D01*
D69*
X16700Y7900D02*
Y7935D01*
D70*
X19991Y1000D02*
D03*
D71*
X20991D02*
D03*
X21991D02*
D03*
X22991D02*
D03*
X23991D02*
D03*
X24991D02*
D03*
D72*
X2129Y12700D02*
D03*
Y17440D02*
D03*
D73*
X3196Y14578D02*
D03*
Y15562D02*
D03*
X3983D02*
D03*
Y14578D02*
D03*
X8400Y20000D02*
D03*
X10400D02*
D03*
X11400D02*
D03*
X12400D02*
D03*
X13400D02*
D03*
X14400D02*
D03*
X15400D02*
D03*
X16400D02*
D03*
X9400D02*
D03*
X11700Y4900D02*
D03*
X12700D02*
D03*
X13700D02*
D03*
X14700D02*
D03*
X15700D02*
D03*
X16700D02*
D03*
X17700D02*
D03*
X18700D02*
D03*
X19700D02*
D03*
X20700D02*
D03*
X21700D02*
D03*
X22700D02*
D03*
X23700D02*
D03*
X24700D02*
D03*
X11700Y7900D02*
D03*
X12700D02*
D03*
X13700D02*
D03*
X14700D02*
D03*
X15700D02*
D03*
X16700D02*
D03*
X17700D02*
D03*
X18700D02*
D03*
X19700D02*
D03*
X20700D02*
D03*
X21700D02*
D03*
X22700D02*
D03*
X23700D02*
D03*
D74*
X4394Y3000D02*
D03*
X1953D02*
D03*
D75*
X3134Y1031D02*
D03*
D76*
X26000Y14000D02*
D03*
X6000Y20000D02*
D03*
X5549Y1000D02*
D03*
X26000Y3000D02*
D03*
D77*
X25000Y20000D02*
D03*
X1042Y11200D02*
D03*
X11000Y1000D02*
D03*
D78*
X24000Y20000D02*
D03*
X23000D02*
D03*
X22000D02*
D03*
X21000D02*
D03*
X20000D02*
D03*
X19000D02*
D03*
X18000D02*
D03*
X6042Y11200D02*
D03*
X5042D02*
D03*
X4042D02*
D03*
X3042D02*
D03*
X2042D02*
D03*
X26000Y12000D02*
D03*
X25000Y11000D02*
D03*
X26000D02*
D03*
X25000Y10000D02*
D03*
X26000D02*
D03*
X18000Y1000D02*
D03*
X17000D02*
D03*
X16000D02*
D03*
X15000D02*
D03*
X14000D02*
D03*
X13000D02*
D03*
X12000D02*
D03*
D79*
X7400Y20000D02*
D03*
D80*
X24700Y7900D02*
D03*
D81*
X25000Y12000D02*
D03*
D82*
X20329Y15775D02*
D03*
X20080Y13700D02*
D03*
X20400Y14023D02*
D03*
X21580Y7200D02*
D03*
X22215Y12000D02*
D03*
X9000Y3700D02*
D03*
X11200Y16300D02*
D03*
X21360Y13774D02*
D03*
X20320Y12874D02*
D03*
X12200Y5400D02*
D03*
X2256Y6356D02*
D03*
X23780Y10435D02*
D03*
X21076Y13300D02*
D03*
X20080Y16244D02*
D03*
X19100D02*
D03*
X20810Y15524D02*
D03*
X22320D02*
D03*
X9485Y16125D02*
D03*
X13535Y17242D02*
D03*
X10880Y12084D02*
D03*
X14230Y14665D02*
D03*
X15190Y8244D02*
D03*
X19290Y11774D02*
D03*
X10490Y12334D02*
D03*
X11990Y13814D02*
D03*
X9900Y19584D02*
D03*
X10030Y10165D02*
D03*
X15400Y11264D02*
D03*
X17680Y15115D02*
D03*
X16450Y15614D02*
D03*
X25220Y14844D02*
D03*
X19242Y17463D02*
D03*
X16374Y8261D02*
D03*
X21620Y14954D02*
D03*
X23400D02*
D03*
X2240Y4874D02*
D03*
X13290Y4314D02*
D03*
X21940Y6154D02*
D03*
X14190Y3504D02*
D03*
X17120Y19634D02*
D03*
X17370Y2904D02*
D03*
X7270Y17874D02*
D03*
X940Y18314D02*
D03*
X19100Y14516D02*
D03*
X11175Y15775D02*
D03*
X12531Y17400D02*
D03*
X14985Y9400D02*
D03*
X3800Y7274D02*
D03*
X2200Y8167D02*
D03*
Y7262D02*
D03*
X9000Y1000D02*
D03*
M02*
