M48
;Layer_Color=9474304
;FILE_FORMAT=2:4
INCH,LZ
;TYPE=PLATED
T1F00S00C0.0120
T2F00S00C0.0150
T3F00S00C0.0354
T4F00S00C0.0394
T5F00S00C0.0472
T6F00S00C0.0866
T7F00S00C0.0949
T8F00S00C0.1063
T9F00S00C0.1240
%
T01
X00224Y004874
X002256Y006356
X0022Y007262
Y008167
X0038Y007274
X009Y0037
Y001
X0122Y0054
X01003Y010165
X01049Y012334
X01088Y012084
X01199Y013814
X01423Y014665
X01645Y015614
X01768Y015115
X0191Y014516
X0204Y014023
X02008Y0137
X02032Y012874
X021076Y0133
X02136Y013774
X02162Y014954
X02232Y015524
X02081
X0234Y014954
X02522Y014844
X022215Y012
X02378Y010435
X02158Y0072
X02194Y006154
X016374Y008261
X01519Y008244
X0154Y011264
X01929Y011774
X01737Y002904
X01419Y003504
X01329Y004314
X013535Y017242
X019242Y017463
X0191Y016244
X02008
X020329Y015775
X01712Y019634
X012531Y0174
X0112Y0163
X011175Y015775
X009485Y016125
X0099Y019584
X00727Y017874
X00094Y018314
T02
X014985Y0094
T03
X0117Y0049
X0127
Y0079
X0117
X0137
X0147
X0157
X0167
X0177
X0187
X0197
X0207
X0217
X0227
X0237
X0247
Y0049
X0237
X0227
X0217
X0207
X0197
X0187
X0177
X0167
X0157
X0147
X0137
X0134Y02
X0144
X0154
X0164
X0124
X0114
X0104
X0094
X0084
X0074
T04
X011Y001
X012
X013
X006042Y0112
X005042
X004042
X003042
X002042
X001042
X003196Y014578
X003983
Y015562
X003196
X025Y012
X026
Y011
X025
Y01
X026
X018Y001
X017
X016
X015
X014
X018Y02
X019
X02
X021
X022
X023
X024
X025
T05
X019991Y001
X020991
X021991
X022991
X023991
X024991
T06
X003134Y001031
T07
X002129Y0127
Y01744
T08
X001953Y003
X004394
T09
X005549Y001
X026Y003
Y014
X006Y02
M30
